<?xml version="1.0" standalone="no"?>
<!DOCTYPE svg PUBLIC "-//W3C//DTD SVG 20010904//EN"
 "http://www.w3.org/TR/2001/REC-SVG-20010904/DTD/svg10.dtd">
<svg version="1.0" xmlns="http://www.w3.org/2000/svg"
 width="1080.000000pt" height="1080.000000pt" viewBox="0 0 1080.000000 1080.000000"
 preserveAspectRatio="xMidYMid meet">

<g transform="translate(0.000000,1080.000000) scale(0.100000,-0.100000)"
fill="#000000" stroke="none">
<path d="M0 5400 l0 -5400 5400 0 5400 0 0 5400 0 5400 -5400 0 -5400 0 0
-5400z m4594 3527 c77 -35 137 -95 177 -175 30 -61 34 -75 34 -157 0 -81 -3
-97 -32 -157 -49 -103 -126 -169 -242 -204 -150 -45 -343 39 -416 182 -41 81
26 74 -670 74 -567 0 -624 -1 -636 -17 -12 -13 -15 -151 -17 -782 -1 -421 0
-776 3 -788 14 -56 -28 -53 788 -53 l752 0 51 48 c28 26 138 128 244 227 107
99 216 200 244 225 28 25 123 113 211 195 88 83 189 177 225 210 66 61 606
560 868 803 l143 132 927 0 c709 0 931 -3 940 -12 15 -15 17 -1984 2 -2008 -8
-13 -122 -15 -916 -17 l-907 -1 -46 -44 c-25 -24 -86 -81 -136 -128 -94 -88
-199 -189 -709 -685 -169 -165 -312 -303 -317 -306 -5 -3 -89 -84 -187 -180
-97 -96 -225 -220 -285 -277 l-107 -103 0 -808 c0 -614 3 -810 12 -819 9 -9
201 -12 803 -12 756 0 793 1 809 18 15 17 16 74 14 657 l-3 639 -65 37 c-135
78 -194 179 -194 334 0 78 4 98 28 148 72 150 234 237 388 210 132 -22 215
-82 274 -199 37 -73 39 -82 38 -163 0 -64 -6 -101 -23 -143 -27 -70 -104 -152
-181 -194 l-55 -29 -3 -739 c-2 -671 -4 -741 -19 -758 -15 -17 -61 -18 -1001
-18 -903 0 -987 1 -1004 17 -17 15 -18 58 -18 949 l0 932 178 169 c97 93 240
227 317 298 77 71 176 164 220 205 44 42 112 105 150 141 39 36 176 164 305
285 365 340 632 588 645 599 6 6 47 45 92 88 l81 77 798 0 c728 0 799 1 816
17 17 15 18 54 18 808 0 602 -3 794 -12 803 -9 9 -200 12 -803 12 l-790 -1
-326 -302 c-179 -166 -444 -412 -589 -547 -145 -135 -291 -270 -324 -300 -34
-30 -131 -120 -216 -200 -394 -368 -503 -466 -533 -477 -40 -15 -1743 -18
-1782 -3 l-25 10 0 998 c0 763 3 1001 12 1010 9 9 184 12 724 12 392 0 720 3
729 6 9 4 27 29 41 56 48 96 133 167 233 195 70 20 188 10 255 -20z m-1824
-6322 c10 -12 45 -15 196 -15 116 0 184 4 184 10 0 6 11 10 25 10 22 0 25 -4
25 -39 0 -21 3 -65 6 -98 6 -55 5 -60 -15 -66 -24 -6 -30 1 -51 63 l-15 45
-57 3 -58 3 0 -274 c0 -293 1 -297 51 -297 33 0 43 -12 34 -40 -6 -19 -14 -20
-133 -18 l-127 3 0 25 c0 19 6 25 33 31 18 4 36 10 40 14 4 3 8 130 10 281 l3
274 -59 0 c-65 0 -73 -8 -88 -85 -5 -29 -10 -36 -28 -33 -19 3 -21 10 -24 68
-6 124 13 177 48 135z m1496 -16 l42 -11 7 -76 c4 -43 7 -84 8 -92 1 -9 -8
-16 -24 -18 -22 -3 -27 2 -38 40 -28 94 -107 131 -198 93 -50 -21 -71 -41 -98
-96 -67 -131 -51 -324 35 -421 48 -55 86 -72 146 -65 55 6 85 32 119 104 27
57 32 60 58 40 17 -12 16 -17 -6 -95 -13 -45 -27 -85 -30 -88 -11 -11 -121
-34 -163 -34 -114 0 -218 70 -270 182 -27 58 -29 72 -29 178 0 104 3 121 27
172 37 80 73 125 126 155 88 52 171 61 288 32z m2219 -5 c129 -61 204 -235
176 -412 -23 -148 -99 -256 -202 -286 -62 -19 -90 -20 -144 -5 -130 35 -216
173 -216 349 0 189 92 335 235 371 39 10 112 2 151 -17z m561 4 c19 -9 24 -21
29 -67 3 -31 8 -66 11 -79 3 -17 -1 -25 -18 -31 -31 -12 -34 -9 -47 44 -14 56
-42 85 -81 85 -55 0 -88 -56 -77 -127 8 -44 32 -71 124 -135 84 -58 123 -121
123 -197 0 -50 -35 -135 -66 -163 -53 -47 -129 -59 -208 -32 -56 19 -64 34
-73 141 -6 74 -6 75 18 71 18 -2 28 -14 42 -53 22 -62 66 -105 108 -105 62 0
104 81 79 155 -9 26 -29 49 -68 78 -128 95 -172 156 -172 237 0 80 54 159 125
185 42 16 108 12 151 -7z m949 11 c25 -6 48 -16 53 -23 6 -6 13 -45 17 -87 6
-76 6 -76 -19 -81 -23 -5 -27 -1 -41 48 -10 34 -24 60 -40 70 -57 37 -121 -11
-119 -91 1 -58 21 -86 96 -136 35 -23 74 -51 86 -63 86 -77 82 -244 -7 -319
-62 -52 -158 -60 -228 -18 -32 20 -35 30 -49 144 l-7 59 28 -4 c24 -2 30 -10
42 -49 24 -85 85 -127 148 -103 42 16 60 121 29 173 -9 15 -41 45 -71 67 -131
92 -153 126 -153 226 0 98 50 169 131 188 48 11 55 11 104 -1z m-4305 -89 c0
-44 1 -83 3 -87 1 -5 -10 -9 -24 -11 -23 -3 -27 1 -33 34 -13 67 -22 74 -103
74 l-73 0 0 -115 0 -116 62 3 c60 3 62 4 70 36 7 25 14 32 34 32 l25 0 -3
-107 c-3 -103 -4 -108 -25 -111 -18 -3 -23 3 -28 31 -8 39 -23 47 -92 47 l-43
0 0 -125 c0 -125 0 -125 26 -135 36 -14 89 -12 129 4 27 12 37 24 52 65 16 45
21 51 46 51 26 0 28 -3 23 -27 -2 -16 -10 -58 -16 -96 l-12 -67 -212 2 -211 3
0 25 c0 19 6 25 33 31 18 4 36 10 40 14 4 4 7 128 7 276 0 290 0 288 -52 289
-17 0 -23 6 -23 23 0 13 3 27 7 30 3 4 93 7 200 7 l193 0 0 -80z m958 48 c3
-22 -1 -28 -17 -28 -49 0 -51 -6 -51 -121 l0 -109 130 0 131 0 -3 108 -3 107
-33 10 c-27 8 -32 14 -30 35 l3 25 115 0 115 0 3 -27 c3 -23 -1 -28 -18 -28
-12 0 -30 -5 -41 -10 -18 -10 -19 -24 -19 -279 0 -286 0 -286 50 -293 19 -2
25 -9 25 -28 l0 -25 -120 0 -120 0 -3 28 c-3 24 0 27 25 27 48 0 53 13 53 147
l0 123 -130 0 -131 0 3 -132 3 -133 33 -3 c28 -3 32 -7 32 -33 l0 -29 -120 0
-120 0 0 29 c0 26 4 30 33 33 l32 3 3 279 c2 297 3 296 -45 296 -17 0 -23 6
-23 23 0 13 3 27 7 31 4 3 57 5 117 4 l111 -3 3 -27z m727 -206 c84 -128 157
-238 164 -245 8 -8 11 30 10 149 0 236 -10 273 -67 274 -20 0 -23 5 -20 28 l3
27 110 0 110 0 3 -27 c3 -24 0 -28 -22 -28 -53 0 -56 -17 -56 -348 l0 -303
-26 3 c-23 3 -49 38 -178 240 -83 130 -157 243 -165 250 -11 11 -13 -18 -8
-189 5 -216 8 -229 55 -235 21 -2 27 -8 27 -28 l0 -25 -110 0 -110 0 -3 27
c-3 23 1 27 25 30 48 5 53 30 53 291 l0 238 -25 24 c-13 14 -33 25 -45 25 -14
0 -20 6 -20 23 0 35 8 38 78 35 l64 -3 153 -233z m633 206 c3 -24 0 -28 -22
-28 -54 0 -56 -9 -56 -289 0 -275 2 -287 50 -293 19 -2 25 -9 25 -28 l0 -25
-120 0 -120 0 0 25 c0 19 6 26 25 28 50 7 50 7 50 293 0 255 -1 269 -19 279
-11 5 -29 10 -40 10 -15 0 -21 6 -21 23 0 13 3 27 7 31 4 3 59 5 122 4 l116
-3 3 -27z m1380 0 c3 -23 -1 -28 -18 -28 -11 0 -23 -6 -26 -13 -8 -21 98 -241
107 -225 5 7 27 60 50 116 44 109 43 121 -4 122 -14 0 -18 6 -15 28 l3 27 102
3 c94 2 102 1 108 -18 8 -27 1 -36 -34 -43 -35 -7 -51 -32 -125 -194 l-56
-122 0 -125 c0 -133 1 -136 56 -136 20 0 24 -5 24 -30 l0 -31 -127 3 -128 3
-3 27 c-3 24 0 27 35 30 l38 3 3 122 3 122 -75 156 c-65 135 -79 158 -106 168
-29 11 -41 43 -23 61 4 4 52 5 107 4 l101 -3 3 -27z"/>
<!-- <path d="M4385 8754 c-75 -27 -115 -83 -115 -160 0 -95 77 -174 170 -174 48 0
85 17 121 57 38 40 49 66 49 113 0 80 -52 146 -135 169 -47 13 -40 13 -90 -5z"/>
<path d="M6254 5127 c-94 -55 -127 -139 -90 -228 50 -118 213 -135 293 -31 24
32 28 46 28 102 0 56 -4 70 -28 102 -15 20 -43 43 -62 52 -39 19 -111 20 -141
3z"/>
<path d="M6311 2523 c-155 -76 -141 -478 19 -565 49 -27 112 -19 152 18 47 45
70 106 76 206 8 142 -22 250 -85 310 -52 49 -104 59 -162 31z"/>
</g> -->
</svg>
